<!--<?xml version="1.0" standalone="no"?>-->
<!--<!DOCTYPE svg PUBLIC "-//W3C//DTD SVG 20010904//EN"-->
<!-- "http://www.w3.org/TR/2001/REC-SVG-20010904/DTD/svg10.dtd">-->
<svg version="1.0" xmlns="http://www.w3.org/2000/svg"
 width="440.000000pt" height="1380.000000pt" viewBox="0 0 440.000000 1380.000000"
 preserveAspectRatio="xMidYMid meet">

<g transform="translate(0.000000,1380.000000) scale(0.100000,-0.100000)"
fill="#000000" stroke="none">
<path d="M2055 13505 c-117 -26 -240 -82 -304 -139 -13 -11 -157 -172 -320
-356 -162 -184 -436 -494 -608 -687 -173 -194 -318 -364 -323 -378 -16 -41
-12 -138 10 -233 19 -87 19 -174 26 -5241 l7 -5153 26 -19 c14 -10 330 -214
701 -454 l675 -436 3 5618 c2 4058 0 5646 -8 5718 -14 127 -50 292 -100 465
-21 75 -42 142 -45 151 -7 19 62 33 245 50 118 11 603 10 614 -1 2 -3 -17 -81
-44 -173 -58 -197 -94 -364 -109 -499 -13 -119 -16 -11331 -3 -11326 5 1 322
205 704 452 l695 449 6 3555 c4 1956 7 4272 7 5147 l0 1592 25 121 c28 136 29
143 15 193 -13 46 -22 57 -315 385 -133 148 -389 438 -571 644 -182 206 -354
396 -381 422 -62 57 -151 103 -251 129 -90 23 -283 25 -377 4z"/>
</g>
</svg>
