<?xml version="1.0" standalone="no"?>
<!DOCTYPE svg PUBLIC "-//W3C//DTD SVG 20010904//EN"
 "http://www.w3.org/TR/2001/REC-SVG-20010904/DTD/svg10.dtd">
<svg version="1.0" xmlns="http://www.w3.org/2000/svg"
 width="440.000000pt" height="1380.000000pt" viewBox="0 0 440.000000 1380.000000"
 preserveAspectRatio="xMidYMid meet">

<g transform="translate(0.000000,1380.000000) scale(0.100000,-0.100000)"
fill="#000000" stroke="none">
<path d="M2088 13514 c-143 -26 -329 -111 -357 -163 -5 -9 -53 -70 -106 -136
l-97 -120 6 -120 c6 -146 28 -244 130 -584 85 -282 126 -440 153 -581 17 -90
18 -382 23 -5713 l5 -5618 62 -35 63 -35 0 5633 c0 4775 -3 5649 -14 5738 -17
124 -56 305 -96 437 -32 109 -36 101 75 126 133 30 273 40 455 33 96 -3 189
-9 207 -12 l31 -6 -14 -47 c-8 -25 -35 -122 -59 -216 -83 -322 -76 280 -73
-6041 l3 -5642 62 36 63 36 0 5583 c0 6176 -6 5655 65 5940 18 76 70 258 114
405 96 320 120 428 127 573 l5 110 -118 145 c-65 79 -140 162 -168 182 -124
94 -338 130 -547 92z m396 -174 c90 -23 193 -75 256 -130 l45 -38 -1 -119 c-2
-130 -16 -211 -71 -411 l-37 -134 -30 6 c-17 4 -126 9 -243 13 -228 6 -374 -4
-527 -37 -49 -11 -91 -19 -92 -17 -6 6 -69 233 -91 327 -30 129 -42 341 -21
380 36 67 252 152 453 179 98 14 268 4 359 -19z"/>
<path d="M3900 11982 c44 -60 46 -107 10 -272 -18 -82 -19 -275 -25 -5242 -4
-2837 -4 -5158 -1 -5158 4 0 33 18 65 39 l58 39 6 3018 c4 1659 7 3960 7 5113
0 1553 3 2123 12 2199 10 88 10 107 -4 135 -18 38 -102 133 -130 148 -19 10
-19 9 2 -19z"/>
<path d="M462 11946 c-83 -87 -88 -104 -74 -243 9 -89 13 -1023 15 -3753 1
-1999 3 -4293 5 -5097 l2 -1462 60 -41 c32 -22 62 -40 65 -40 3 0 3 2314 0
5142 l-6 5143 -26 129 c-27 140 -26 190 7 244 29 48 9 39 -48 -22z"/>
</g>
</svg>
